# Blender v2.83.5 OBJ File: 'Library.blend'
# www.blender.org
mtllib Library.mtl
o Cube
v 0.999147 2.041646 -0.318145
v 0.999147 0.041646 -0.318145
v 0.999147 2.041646 0.318145
v 0.999147 0.041646 0.318145
v -0.999147 2.041646 -0.318145
v -0.999147 0.041646 -0.318145
v -0.999147 2.041646 0.318145
v -0.999147 0.041646 0.318145
vt 0.255738 0.561386
vt 0.366658 0.561386
vt 0.366658 0.594864
vt 0.255738 0.594864
vt 0.060502 0.221219
vt 0.060502 0.307426
vt 0.000696 0.307426
vt 0.000696 0.221219
vt 0.060502 0.221219
vt 0.060502 0.307426
vt 0.000696 0.307426
vt 0.000696 0.221219
vt 0.060502 0.221219
vt 0.060502 0.307426
vt 0.000696 0.307426
vt 0.060502 0.221219
vt 0.060502 0.307426
vt 0.000696 0.307426
vt 0.000696 0.221219
vt 0.376747 0.471803
vt 0.376747 0.558145
vt 0.250857 0.558145
vt 0.250857 0.471803
vn 0.0000 1.0000 0.0000
vn 0.0000 0.0000 1.0000
vn -1.0000 0.0000 0.0000
vn 0.0000 -1.0000 0.0000
vn 1.0000 0.0000 0.0000
vn 0.0000 0.0000 -1.0000
usemtl Material
s off
f 1/1/1 5/2/1 7/3/1 3/4/1
f 4/5/2 3/6/2 7/7/2 8/8/2
f 8/9/3 7/10/3 5/11/3 6/12/3
f 6/13/4 2/14/4 4/15/4 8/8/4
f 2/16/5 1/17/5 3/18/5 4/19/5
f 6/20/6 5/21/6 1/22/6 2/23/6
